<svg
  class="fill-white w-[130px] xl:w-[160px] h-auto"
  viewBox="0 0 132 40"
  xmlns="http://www.w3.org/2000/svg"
>
  <path
    d="M9.85423 39.3455V9.5036C9.85423 9.48718 9.85424 9.48718 9.87066 9.48718L9.91993 9.47076H9.93635C11.201 18.4217 12.0714 24.4163 12.5313 27.4712C12.712 28.6372 13.1554 29.8198 13.8616 31.0023C15.1591 33.1866 16.9986 34.6483 19.38 35.3874C20.0369 35.6009 20.7103 35.7487 21.433 35.8473C21.4987 35.8637 21.6629 35.8637 21.9421 35.8637C22.2213 35.8637 22.3855 35.8637 22.4512 35.8473C23.1575 35.7487 23.8472 35.6009 24.5042 35.3874C26.8856 34.6483 28.7251 33.1702 30.0226 31.0023C30.7288 29.8198 31.1722 28.6537 31.3529 27.4712C31.8292 24.4163 32.6996 18.4217 33.9478 9.47076C33.9478 9.47076 33.9478 9.47076 33.9643 9.47076L34.0135 9.48718C34.03 9.48718 34.03 9.5036 34.03 9.5036V39.3455C34.03 39.3619 34.0464 39.3784 34.0628 39.3784H43.8349C43.8513 39.3784 43.8842 39.3619 43.8842 39.3291C43.8842 38.1959 43.8842 28.9657 43.8842 11.6551C43.8842 10.0949 43.8349 8.99447 43.7364 8.37037C43.0137 3.87027 39.302 0.35559 34.7362 0.0271156C32.2069 -0.153545 29.924 0.569099 27.8875 2.17862C26.0644 3.60749 24.9148 5.54549 24.4057 7.99262C24.34 8.28825 24.2907 8.81381 24.225 9.55288C24.1921 9.99632 24.1429 10.5219 24.0608 11.0967C23.371 16.4016 22.6647 21.7229 21.9749 27.0277C21.9749 27.0606 21.9585 27.0606 21.9421 27.0606C21.9257 27.0606 21.9092 27.0441 21.9092 27.0277C21.2195 21.7229 20.5132 16.4016 19.8234 11.0967C19.7413 10.5055 19.692 9.99632 19.6592 9.55288C19.6099 8.81381 19.5442 8.28825 19.4785 7.99262C18.9694 5.54549 17.8197 3.60749 15.9967 2.17862C13.9602 0.569099 11.6773 -0.137122 9.14801 0.0271156C4.58222 0.339166 0.870456 3.85384 0.147813 8.37037C0.0492702 8.99447 0 10.0784 0 11.6551C0 28.9657 0 38.1794 0 39.3291C0 39.3455 0.0164242 39.3784 0.0492717 39.3784H9.82139C9.83781 39.3948 9.85423 39.3784 9.85423 39.3455Z"
  ></path>
  <path
    d="M68.8132 18.6081C69.0924 18.5752 69.306 18.3453 69.2895 18.0661C69.1089 13.0897 68.9611 8.75385 68.8297 5.09135C68.7968 4.38513 68.2877 4.43441 67.68 4.43441C67.0231 4.41798 66.399 4.43441 65.7749 4.45083C65.5121 4.46725 65.2821 4.63149 65.2164 4.89427L62.6379 14.4365C62.6215 14.4857 62.5886 14.5186 62.5394 14.5186C62.4244 14.5186 62.293 14.5186 62.1452 14.5186C61.9974 14.5186 61.866 14.5186 61.751 14.5186C61.7018 14.5186 61.6689 14.4857 61.6525 14.4365L59.074 4.87785C59.0083 4.63149 58.7783 4.45083 58.5156 4.43441C57.8915 4.41798 57.2674 4.40156 56.6104 4.41798C56.0027 4.43441 55.4936 4.36871 55.4608 5.07493C55.3294 8.73742 55.1815 13.0733 55.0009 18.0497C54.9845 18.3289 55.198 18.5752 55.4772 18.5917C55.6743 18.6081 55.9699 18.6245 56.3476 18.6081C56.8075 18.6081 56.9717 18.3617 56.9882 17.9019C57.0703 15.6682 57.2017 12.0057 57.3823 6.88154C57.3823 6.83227 57.4152 6.81585 57.448 6.81585H57.9407C57.99 6.81585 58.0229 6.84869 58.0393 6.89796C59.5503 12.9583 60.3386 16.0953 60.3879 16.2923C60.47 16.6372 60.6671 16.8179 60.9463 16.8507C61.3076 16.8836 61.7018 16.9 62.1288 16.9C62.5558 16.9 62.95 16.8836 63.3113 16.8507C63.5905 16.8343 63.7876 16.6372 63.8697 16.2923C63.919 16.0953 64.7073 12.9583 66.2183 6.89796C66.2347 6.84869 66.2676 6.83227 66.3168 6.83227H66.8095C66.8588 6.83227 66.8752 6.84869 66.8752 6.89796C67.0559 12.0222 67.1873 15.6847 67.2694 17.9183C67.2858 18.3781 67.4501 18.6081 67.9099 18.6245C68.3205 18.6409 68.6162 18.6245 68.8132 18.6081Z"
  ></path>
  <path
    d="M65.2986 21.4987H63.5413C63.492 21.4987 63.4592 21.5315 63.4592 21.5808V27.5755C63.4592 27.6247 63.4263 27.6576 63.3771 27.6576C62.95 27.6576 61.9318 27.6576 60.3222 27.6576C58.7127 27.6576 57.6944 27.6576 57.2674 27.6576C57.2182 27.6576 57.1853 27.6247 57.1853 27.5755V21.5808C57.1853 21.5315 57.1525 21.4987 57.1032 21.4987H55.3294C55.2802 21.4987 55.2473 21.5315 55.2473 21.5808V35.1796C55.2473 35.2289 55.2802 35.2618 55.3294 35.2618H57.1032C57.1525 35.2618 57.1853 35.2289 57.1853 35.1796V29.4806C57.1853 29.4313 57.2182 29.3985 57.2674 29.3985C57.4809 29.3985 58.4992 29.3985 60.3222 29.3985C62.1453 29.3985 63.1635 29.3985 63.3771 29.3985C63.4263 29.3985 63.4592 29.4313 63.4592 29.4806V35.1796C63.4592 35.2289 63.492 35.2618 63.5413 35.2618H65.2986C65.3479 35.2618 65.3808 35.2289 65.3808 35.1796V21.5808C65.3972 21.5315 65.3643 21.4987 65.2986 21.4987Z"
  ></path>
  <path
    d="M69.8808 21.4987H68.1399C68.1071 21.4987 68.0742 21.5315 68.0742 21.5644V35.1796C68.0742 35.2125 68.1071 35.2453 68.1399 35.2453H69.8808C69.9137 35.2453 69.9465 35.2125 69.9465 35.1796V21.5644C69.9465 21.5315 69.9137 21.4987 69.8808 21.4987Z"
  ></path>
  <path
    d="M99.6898 23.4043C99.6898 23.3876 99.7065 23.3876 99.7065 23.371C99.6898 23.3876 99.6898 23.4043 99.6898 23.4043Z"
  ></path>
  <path
    d="M117.789 7.39069C117.378 5.63335 116.311 4.59865 114.586 4.27018C114.011 4.15521 113.338 4.10594 112.566 4.10594C111.811 4.10594 111.137 4.15521 110.546 4.27018C108.821 4.59865 107.77 5.63335 107.343 7.39069C107.146 8.21187 107.031 9.03306 106.998 9.87067C106.982 10.1827 106.982 10.659 106.982 11.316C106.982 11.9729 106.982 12.4492 106.998 12.7612C107.031 13.5824 107.146 14.42 107.343 15.2412C107.754 16.9986 108.821 18.0333 110.546 18.3617C111.121 18.4767 111.794 18.526 112.566 18.526C113.321 18.526 113.995 18.4767 114.586 18.3617C116.294 18.0333 117.362 16.9986 117.789 15.2412C117.986 14.42 118.101 13.5989 118.134 12.7612C118.15 12.4492 118.15 11.9729 118.15 11.316C118.15 10.659 118.15 10.1827 118.134 9.87067C118.084 9.03306 117.969 8.21187 117.789 7.39069ZM116.048 13.7795C115.851 15.2741 115.276 16.5387 113.568 16.6865C113.092 16.7358 112.763 16.7522 112.55 16.7522C112.336 16.7522 111.991 16.7194 111.515 16.6865C109.807 16.5223 109.248 15.2577 109.068 13.7467C108.986 12.9912 108.936 12.1864 108.936 11.2995C108.936 10.4127 108.986 9.59146 109.084 8.8524C109.281 7.35784 109.856 6.09321 111.564 5.92898C112.04 5.87971 112.369 5.86328 112.599 5.86328C112.812 5.86328 113.157 5.87971 113.617 5.92898C115.325 6.09321 115.884 7.35784 116.064 8.86882C116.146 9.62431 116.196 10.4291 116.196 11.316C116.196 12.2028 116.146 13.024 116.048 13.7795Z"
  ></path>
  <path
    d="M75.3334 18.4767C77.255 18.4439 79.0288 18.3782 80.6219 18.2796C80.6383 18.2796 80.6547 18.2632 80.6547 18.2468V16.6865C80.6547 16.6701 80.6383 16.6537 80.6219 16.6537C78.1255 16.6537 76.3353 16.6537 75.202 16.6372C74.2002 16.6208 73.6911 16.1281 73.6746 15.1263C73.6582 14.0916 73.6582 13.1554 73.6746 12.3014C73.6746 12.2521 73.7075 12.2193 73.7568 12.2193L79.5872 12.1043C79.7186 12.1043 79.7843 12.0386 79.7843 11.9072C79.7843 11.8087 79.7843 11.6116 79.7843 11.3324C79.7843 11.0532 79.7843 10.8561 79.7843 10.7575C79.7843 10.6262 79.7186 10.5605 79.5872 10.5605L73.7568 10.4455C73.7075 10.4455 73.6746 10.4127 73.6746 10.3634C73.6582 9.50935 73.6582 8.57319 73.6746 7.5385C73.6911 6.53665 74.2002 6.04394 75.202 6.02752C76.3189 6.0111 78.1255 6.0111 80.6219 6.02752C80.6383 6.02752 80.6547 6.01109 80.6547 5.99467V4.43442C80.6547 4.41799 80.6383 4.40157 80.6219 4.40157C79.0123 4.30302 77.255 4.23733 75.3334 4.20449C73.7568 4.17164 72.3443 4.40157 71.868 5.97825C71.7695 6.30672 71.7202 6.9144 71.7202 7.8177C71.7202 8.98379 71.7202 10.1663 71.7202 11.3324C71.7202 12.4985 71.7202 13.681 71.7202 14.8471C71.7202 15.7504 71.7695 16.3745 71.868 16.6865C72.3443 18.2796 73.7568 18.5095 75.3334 18.4767Z"
  ></path>
  <path
    d="M93.6788 4.20448H91.8886C91.8229 4.20448 91.7736 4.23733 91.7736 4.31945V14.8471C91.7736 14.9292 91.7572 14.9456 91.7079 14.8635C89.9998 12.2193 89.1458 10.8889 89.1458 10.8889C88.3246 9.62431 86.9286 7.43995 84.9578 4.31945C84.9085 4.23733 84.8264 4.20448 84.7442 4.20448H83.3318C83.299 4.20448 83.2661 4.23733 83.2661 4.27018V18.3125C83.2661 18.3782 83.299 18.411 83.3647 18.411H85.1384C85.2041 18.411 85.2534 18.3782 85.2534 18.296V7.76843C85.2534 7.68631 85.2698 7.66989 85.3191 7.75201C87.0271 10.3962 87.8812 11.7265 87.8812 11.7265C88.7024 12.9912 90.0984 15.1755 92.0692 18.2796C92.1185 18.3617 92.2006 18.3946 92.2827 18.3946H93.7116C93.7445 18.3946 93.7773 18.3617 93.7773 18.3289V4.27018C93.7773 4.23733 93.7444 4.20448 93.6788 4.20448Z"
  ></path>
  <path
    d="M105.586 4.22089C103.845 4.22089 102.137 4.22089 100.412 4.22089C98.6879 4.22089 96.9799 4.22089 95.239 4.22089C95.2061 4.22089 95.1897 4.23731 95.1897 4.27016V5.8961C95.1897 5.94537 95.2225 5.97822 95.2718 5.97822H99.3449C99.3942 5.97822 99.427 6.01107 99.427 6.06034V18.3453C99.427 18.3781 99.4599 18.411 99.4927 18.411C99.6898 18.411 99.9854 18.411 100.412 18.411C100.823 18.411 101.135 18.411 101.332 18.411C101.365 18.411 101.398 18.3781 101.398 18.3453V6.06034C101.398 6.01107 101.431 5.97822 101.48 5.97822H105.553C105.602 5.97822 105.635 5.94537 105.635 5.8961V4.27016C105.635 4.23731 105.602 4.22089 105.586 4.22089Z"
  ></path>
  <path
    d="M120.663 18.4274H122.47C122.519 18.4274 122.552 18.3946 122.552 18.3453V12.7776C122.552 12.7612 122.552 12.7612 122.568 12.7612H125.459C125.606 12.7612 125.721 12.8269 125.787 12.9583L128.382 18.3617C128.399 18.411 128.431 18.4274 128.481 18.4274H130.271C130.287 18.4274 130.287 18.4274 130.304 18.4274C130.337 18.411 130.353 18.3617 130.337 18.3289L127.594 12.6134C127.561 12.5477 127.577 12.5149 127.643 12.4984C128.94 12.1371 129.712 11.2995 129.942 10.002C130.139 8.91807 130.139 7.86695 129.909 6.83226C129.515 5.00922 128.201 4.2373 126.378 4.2373C124.457 4.2373 122.552 4.2373 120.63 4.2373C120.614 4.2373 120.581 4.25373 120.581 4.28658V18.3617C120.581 18.3946 120.597 18.4274 120.663 18.4274ZM122.535 6.06034C122.535 6.01107 122.568 5.97822 122.617 5.97822H126.066C127.167 5.97822 128.07 6.89795 128.07 8.01476V9.16442C128.07 10.2977 127.167 11.201 126.066 11.201H122.617C122.568 11.201 122.535 11.1681 122.535 11.1188V6.06034Z"
  ></path>
  <path
    d="M78.8646 27.6247C78.569 27.5426 78.1255 27.5098 77.5343 27.4933C76.6474 27.4933 76.2039 27.4769 76.1875 27.4769C75.6784 27.4769 75.2842 27.4112 75.005 27.2798C74.2331 26.9514 74.1674 26.278 74.1346 25.4896C74.1017 24.2743 74.4302 23.371 75.7933 23.1903C76.2696 23.1246 76.7459 23.1082 77.2222 23.1246C78.3883 23.1739 79.4558 23.2396 80.4413 23.3217C80.4741 23.3217 80.4905 23.3053 80.4905 23.2724V21.86C80.4905 21.8272 80.4741 21.8107 80.4413 21.7943C79.2752 21.5808 78.1255 21.4658 77.0087 21.4166C74.6601 21.318 72.4593 21.86 72.3279 24.652C72.2458 26.6393 72.2622 28.5445 74.5451 29.1193C74.9722 29.2178 75.2842 29.2835 75.4813 29.2835C76.7623 29.2999 77.4521 29.3 77.5178 29.3C78.3226 29.2835 78.8646 29.5956 79.1438 30.2361C79.2259 30.4168 79.2752 30.6795 79.2916 31.0409C79.308 31.4186 79.308 31.6978 79.2916 31.8785C79.1931 32.8803 78.6182 33.4387 77.5671 33.5701C76.943 33.6358 76.1054 33.6687 75.0214 33.6358C74.2988 33.6194 73.4448 33.5701 72.4593 33.5044C72.4265 33.5044 72.3936 33.5373 72.3936 33.5701V34.9169C72.3936 34.9661 72.4265 34.999 72.4758 35.0154C73.1163 35.1139 74.1181 35.2289 75.4484 35.3275C76.8773 35.4424 78.8646 35.3932 79.9485 34.5555C80.6219 34.03 80.9997 33.3566 81.0654 32.5026C81.1475 31.5007 81.1475 30.7781 81.0982 30.3346C80.9175 28.8565 80.1785 27.9532 78.8646 27.6247Z"
  ></path>
  <path
    d="M129.088 22.402C128.037 21.5479 126.592 21.4165 125.294 21.4165C123.997 21.4165 122.552 21.5479 121.501 22.402C119.957 23.6666 119.875 26.5736 119.875 28.3966C119.875 30.2197 119.957 33.1267 121.484 34.3913C122.535 35.2453 123.981 35.3767 125.278 35.3767C126.576 35.3767 128.021 35.2453 129.088 34.3913C130.632 33.1431 130.714 30.2361 130.714 28.3966C130.714 26.5736 130.632 23.6666 129.088 22.402ZM128.596 31.0573C128.448 32.1084 128.004 33.1267 126.888 33.4551C126.428 33.603 125.886 33.6686 125.245 33.6522C124.605 33.6522 124.063 33.5701 123.603 33.4387C122.502 33.0938 122.059 32.0755 121.928 31.0244C121.813 30.1375 121.747 29.2507 121.763 28.3638C121.763 27.4769 121.829 26.59 121.96 25.7031C122.108 24.652 122.552 23.6338 123.669 23.3053C124.128 23.1575 124.67 23.0918 125.311 23.1082C125.951 23.1082 126.493 23.1903 126.953 23.3217C128.054 23.6666 128.497 24.6849 128.628 25.736C128.743 26.6229 128.809 27.5098 128.793 28.3966C128.776 29.2835 128.711 30.1704 128.596 31.0573Z"
  ></path>
  <path
    d="M89.1951 21.5151C87.6184 21.4822 85.7297 21.4822 83.5289 21.4986C83.4796 21.4986 83.4468 21.5315 83.4468 21.5808V35.2125C83.4468 35.2453 83.4632 35.2453 83.4796 35.2453H85.2862C85.3355 35.2453 85.3684 35.2124 85.3684 35.1632V30.4824C85.3684 30.4496 85.4012 30.4167 85.4505 30.4167C86.9286 30.5645 88.144 30.6138 89.113 30.6138C90.9688 30.581 92.1021 29.6941 92.5127 27.9203C92.7755 26.8199 92.7919 25.6703 92.5948 24.4713C92.2992 22.5498 91.1495 21.5643 89.1951 21.5151ZM90.8046 26.8035C90.8046 27.986 89.8849 28.9386 88.7352 28.9386H85.4833C85.4505 28.9386 85.4341 28.9222 85.4176 28.9057C85.4012 28.8893 85.3848 28.8565 85.3848 28.84V23.3053C85.3848 23.256 85.434 23.2067 85.4833 23.2067H88.7352C89.8685 23.2067 90.8046 24.1593 90.8046 25.3418V26.8035Z"
  ></path>
  <path
    d="M100.971 21.5644C100.954 21.5315 100.938 21.5151 100.905 21.5151C100.527 21.4987 100.133 21.4987 99.7555 21.4987C99.3613 21.4987 98.9836 21.4987 98.6059 21.5151C98.573 21.5151 98.5402 21.5315 98.5402 21.5644L93.9744 35.1632V35.1796C93.9744 35.2125 94.0072 35.2453 94.0401 35.2453H95.8795C95.9288 35.2453 95.9616 35.2289 95.9781 35.1796L97.1277 31.7471C97.1441 31.7142 97.177 31.6978 97.2098 31.6978C97.4233 31.6978 98.2774 31.6978 99.7555 31.6978C101.234 31.6978 102.088 31.6978 102.301 31.6978C102.334 31.6978 102.367 31.7142 102.383 31.7635L103.533 35.1961C103.549 35.2453 103.582 35.2618 103.632 35.2618H105.471H105.487C105.52 35.2453 105.537 35.2125 105.52 35.1796L100.971 21.5644ZM101.808 29.9076C101.792 29.924 101.792 29.924 101.792 29.924H101.776L97.6697 29.9076H97.6533C97.6533 29.9076 97.6533 29.9076 97.6369 29.8912C97.6369 29.8912 97.6204 29.8912 97.6204 29.8748V29.8583C97.6204 29.8583 97.6204 29.8583 97.6204 29.8419V29.8255L99.6898 23.3874C99.6898 23.371 99.7062 23.371 99.7062 23.3546H99.7227H99.7391C99.7555 23.3546 99.7555 23.371 99.7555 23.3874L101.808 29.8419V29.8583C101.808 29.8583 101.808 29.8583 101.808 29.8748C101.825 29.8912 101.825 29.8912 101.808 29.9076Z"
  ></path>
  <path
    d="M117.657 21.4987H115.884C115.834 21.4987 115.802 21.5315 115.802 21.5808V31.7635C115.802 31.862 115.769 31.862 115.719 31.7799C114.833 30.3018 114.011 29.0372 113.272 27.9696C112.451 26.8035 111.154 24.7506 109.363 21.8271C109.314 21.7286 109.232 21.6465 109.166 21.5644C109.134 21.5315 109.084 21.4987 109.019 21.4987H107.672C107.623 21.4987 107.59 21.5315 107.59 21.5808V35.1796C107.59 35.2289 107.623 35.2618 107.672 35.2618H109.446C109.495 35.2618 109.528 35.2289 109.528 35.1796V24.9969C109.528 24.8984 109.561 24.8984 109.61 24.9805C110.497 26.4586 111.318 27.7233 112.057 28.7908C112.878 29.9569 114.176 32.0099 115.966 34.9333C116.015 35.0318 116.097 35.1139 116.163 35.1961C116.196 35.2289 116.245 35.2618 116.311 35.2618H117.657C117.707 35.2618 117.74 35.2289 117.74 35.1796V21.5808C117.74 21.5315 117.707 21.4987 117.657 21.4987Z"
  ></path>
</svg>
