<svg aria-hidden="true" xmlns="http://www.w3.org/2000/svg" viewBox="0 0 87.22 92.97"> <g class="color1" style="fill: var(--genially-secondary);">       <path class="color1" d="m51.31,30.7h-15.4c-1.93,0-3.5,1.57-3.5,3.5s1.57,3.5,3.5,3.5h15.4c1.93,0,3.5-1.57,3.5-3.5s-1.57-3.5-3.5-3.5Z" style="fill: var(--genially-secondary);"></path>       <path class="color1" d="m87.21,14.17c.02-.18.02-.36,0-.54,0-.07,0-.14,0-.21-.03-.25-.08-.49-.16-.72,0-.03-.02-.05-.03-.08-.08-.2-.17-.4-.28-.59-.04-.07-.09-.13-.14-.2-.1-.14-.2-.27-.31-.39-.03-.03-.04-.06-.07-.09l-10.32-10.32c-1.13-1.13-2.88-1.35-4.26-.53l-13.28,7.89C56.74,3.67,52.28.26,47.04.26h-6.86c-5.25,0-9.7,3.41-11.3,8.12L15.6.49c-1.38-.82-3.13-.6-4.26.53L1.01,11.35s-.04.06-.07.09c-.12.12-.22.26-.32.4-.05.07-.1.13-.14.2-.11.19-.21.39-.28.59,0,.02-.02.05-.03.07-.08.23-.13.48-.16.72,0,.07,0,.14,0,.21-.01.18-.01.36,0,.54,0,.03,0,.06,0,.09,0,.07.04.13.05.19.02.1.02.2.05.3l6.42,23.38c.13.47.36.88.64,1.24-.17,1.29-.26,2.6-.26,3.93v41.74c0,4.37,3.55,7.92,7.92,7.92h57.55c4.37,0,7.92-3.55,7.92-7.92v-41.74c0-1.33-.09-2.64-.26-3.93.28-.36.51-.77.64-1.24l6.42-23.38c.03-.1.03-.2.05-.3.01-.07.04-.13.05-.19,0-.03,0-.06,0-.09Zm-14.35-6.27l5.22,5.22-8.78,5.22-5.22-5.22,8.78-5.22Zm-37.61,4.3c0-2.72,2.21-4.94,4.94-4.94h6.86c2.72,0,4.94,2.21,4.94,4.94v.42h-.32c-.7-.05-1.4-.08-2.11-.08h-11.87c-.71,0-1.41.03-2.11.08h-.32v-.42ZM14.36,7.9l8.78,5.22-5.22,5.22-8.78-5.22,5.22-5.22Zm-5.2,13.37l4.59,2.73c-1.02,1.26-1.93,2.6-2.74,4l-1.85-6.73Zm15.98,50.42h6.03v1.66c0,1.93,1.57,3.5,3.5,3.5s3.5-1.57,3.5-3.5v-1.66h10.89v1.66c0,1.93,1.57,3.5,3.5,3.5s3.5-1.57,3.5-3.5v-1.66h6.03v12.85H25.14v-12.85Zm36.94-7h-6.03v-1.66c0-1.93-1.57-3.5-3.5-3.5s-3.5,1.57-3.5,3.5v1.66h-10.89v-1.66c0-1.93-1.57-3.5-3.5-3.5s-3.5,1.57-3.5,3.5v1.66h-6.03v-5.28c0-2,1.63-3.63,3.63-3.63h29.68c2,0,3.63,1.63,3.63,3.63v5.28Zm11.22,20.36c0,.51-.41.92-.92.92h-3.3v-26.56c0-5.86-4.77-10.63-10.63-10.63h-29.68c-5.86,0-10.63,4.77-10.63,10.63v26.56h-3.3c-.51,0-.92-.41-.92-.92v-41.74c0-12.47,9.66-22.72,21.89-23.68h15.61c12.23.96,21.89,11.21,21.89,23.68v41.74Zm.16-61.05l4.59-2.73-1.85,6.73c-.81-1.41-1.73-2.75-2.74-4Z" style="fill: var(--genially-secondary);"></path>     </g> </svg>
